<mxfile host="app.diagrams.net" modified="2024-04-26T21:16:59.749Z" agent="Mozilla/5.0 (Windows NT 10.0; Win64; x64) AppleWebKit/537.36 (KHTML, like Gecko) Chrome/123.0.0.0 Safari/537.36" etag="CZgx8iwJdX8H6_C4t3Vk" version="24.3.1" type="github">
  <diagram name="Page-1" id="7e0a89b8-554c-2b80-1dc8-d5c74ca68de4">
    <mxGraphModel dx="780" dy="402" grid="0" gridSize="10" guides="1" tooltips="1" connect="1" arrows="1" fold="1" page="1" pageScale="1" pageWidth="1100" pageHeight="850" background="none" math="0" shadow="0">
      <root>
        <mxCell id="0" />
        <mxCell id="1" parent="0" />
        <mxCell id="PsaConu2Hvfhxj08faw--5" style="edgeStyle=orthogonalEdgeStyle;rounded=0;orthogonalLoop=1;jettySize=auto;html=1;exitX=1;exitY=0.25;exitDx=0;exitDy=0;entryX=0;entryY=0.25;entryDx=0;entryDy=0;strokeColor=#FF0000;endArrow=none;endFill=0;" edge="1" parent="1" source="PsaConu2Hvfhxj08faw--1" target="PsaConu2Hvfhxj08faw--2">
          <mxGeometry relative="1" as="geometry" />
        </mxCell>
        <mxCell id="PsaConu2Hvfhxj08faw--6" style="edgeStyle=orthogonalEdgeStyle;rounded=0;orthogonalLoop=1;jettySize=auto;html=1;exitX=1;exitY=0.25;exitDx=0;exitDy=0;strokeColor=#B09500;entryX=-0.001;entryY=0.333;entryDx=0;entryDy=0;entryPerimeter=0;endArrow=none;endFill=0;fillColor=#e3c800;" edge="1" parent="1" target="PsaConu2Hvfhxj08faw--2">
          <mxGeometry relative="1" as="geometry">
            <mxPoint x="479.9999999999999" y="164.99999999999997" as="sourcePoint" />
            <mxPoint x="550" y="120" as="targetPoint" />
            <Array as="points">
              <mxPoint x="480" y="170" />
              <mxPoint x="530" y="170" />
              <mxPoint x="530" y="120" />
            </Array>
          </mxGeometry>
        </mxCell>
        <mxCell id="PsaConu2Hvfhxj08faw--1" value="PixiHawk" style="rounded=0;whiteSpace=wrap;html=1;" vertex="1" parent="1">
          <mxGeometry x="370" y="150" width="120" height="60" as="geometry" />
        </mxCell>
        <mxCell id="PsaConu2Hvfhxj08faw--2" value="ESC" style="rounded=0;whiteSpace=wrap;html=1;" vertex="1" parent="1">
          <mxGeometry x="560" y="100" width="92" height="38" as="geometry" />
        </mxCell>
        <mxCell id="PsaConu2Hvfhxj08faw--4" value="Motor" style="ellipse;whiteSpace=wrap;html=1;aspect=fixed;" vertex="1" parent="1">
          <mxGeometry x="730" y="90" width="80" height="80" as="geometry" />
        </mxCell>
        <mxCell id="PsaConu2Hvfhxj08faw--8" style="edgeStyle=orthogonalEdgeStyle;rounded=0;orthogonalLoop=1;jettySize=auto;html=1;exitX=1;exitY=0.5;exitDx=0;exitDy=0;endArrow=none;endFill=0;entryX=0;entryY=0.75;entryDx=0;entryDy=0;" edge="1" parent="1" target="PsaConu2Hvfhxj08faw--2">
          <mxGeometry relative="1" as="geometry">
            <mxPoint x="489.4" y="175.5" as="sourcePoint" />
            <mxPoint x="551" y="126" as="targetPoint" />
            <Array as="points">
              <mxPoint x="535" y="176" />
              <mxPoint x="535" y="129" />
              <mxPoint x="560" y="129" />
            </Array>
          </mxGeometry>
        </mxCell>
      </root>
    </mxGraphModel>
  </diagram>
</mxfile>
